<svg xmlns="http://www.w3.org/2000/svg" xmlns:xlink="http://www.w3.org/1999/xlink" id="图层_1" data-name="图层 1" viewBox="0 0 1238 415"><defs><style>.cls-1{fill:#060628}.cls-2{fill:url(#未命名的渐变_2747)}.cls-3{fill:url(#未命名的渐变_2747-2)}.cls-4{fill:url(#未命名的渐变_2747-3)}.cls-5{fill:url(#未命名的渐变_2747-4)}</style><linearGradient id="未命名的渐变_2747" x1="49.01" x2="129.42" y1="143.18" y2="325.61" gradientUnits="userSpaceOnUse"><stop offset="0" stop-color="#00f7ff"/><stop offset="1" stop-color="#007bff"/></linearGradient><linearGradient id="未命名的渐变_2747-2" x1="181.96" x2="182.27" y1="58.39" y2="232.28" xlink:href="#未命名的渐变_2747"/><linearGradient id="未命名的渐变_2747-3" x1="250.69" x2="250.99" y1="58.39" y2="232.28" xlink:href="#未命名的渐变_2747"/><linearGradient id="未命名的渐变_2747-4" x1="142.68" x2="264.18" y1="4.87" y2="345.06" xlink:href="#未命名的渐变_2747"/></defs><path d="M365.36,157.65H399c28.78,0,53.25,16.33,53.25,49.29S427.81,256.23,399,256.23H365.36Zm32,82.38c18,0,35-8.73,35-33.09s-17-33.24-35-33.24H384.94V240Z" class="cls-1"/><path d="M535.05,232.57c-2.82,15.07-16.77,24.78-35.16,24.78-24.47,0-38.12-18.31-38.12-36.89,0-18.73,12.16-36.34,36.64-36.34,25.07,0,36.34,17.32,36.34,34.22a57.72,57.72,0,0,1-.3,5.92H479.27c1.34,11.41,9.05,18.73,20.62,18.73,9.35,0,15.43-3.66,17.36-10.42Zm-55.33-19.72H516.5c-.74-9-7.26-15.77-18.09-15.77C488.17,197.08,481.65,202.15,479.72,212.85Z" class="cls-1"/><path d="M616.62,232.57c-2.82,15.07-16.76,24.78-35.15,24.78-24.48,0-38.12-18.31-38.12-36.89,0-18.73,12.16-36.34,36.64-36.34,25.06,0,36.34,17.32,36.34,34.22a57.72,57.72,0,0,1-.3,5.92H560.85c1.34,11.41,9,18.73,20.62,18.73,9.34,0,15.43-3.66,17.35-10.42ZM561.3,212.85h36.78c-.74-9-7.27-15.77-18.09-15.77C569.75,197.08,563.22,202.15,561.3,212.85Z" class="cls-1"/><path d="M630.71,157.65h41.68c21.66,0,34.56,12.67,34.56,30.56s-12.9,30.56-34.56,30.56H650.44v37.46H630.71Zm40.79,45.48c11.57,0,16.32-7,16.32-14.92s-4.75-14.93-16.32-14.93H650.44v29.85Z" class="cls-1"/><path d="M719.71,157.65H742.4l31.45,72.81,31.44-72.81h22.55v98.58H809.45V190.88l-28.19,65.35H766.43L738.1,190.88v65.35H719.71Z" class="cls-1"/><path d="M847.71,157.65h33.67c28.78,0,53.25,16.33,53.25,49.29s-24.47,49.29-53.25,49.29H847.71Zm32,82.38c18,0,35-8.73,35-33.09s-17.06-33.24-35-33.24H867.29V240Z" class="cls-1"/><path d="M1038.66,226.51l-8.9,8.17V258.2h-18.24V156.8h18.24v56.33l28.63-25.91h23.14l-30.41,27.88,32.93,43.1H1062Z" class="cls-1"/><path d="M1112.08,156.8v19.29H1092.5V156.8Zm-18.83,30.42h18.24v71h-18.24Z" class="cls-1"/><path d="M1155.25,165.82v21.4H1176v14.51h-20.76v31c0,7.18,4,10.84,10.82,10.84H1176V258.2h-12c-16.32,0-27-9-27-24.79V201.73h-14.68V187.22H1137v-21.4Z" class="cls-1"/><rect width="29.75" height="14.52" x="951.46" y="200.24" class="cls-1"/><path d="M104,275.34c0-18.87,2.92-37.94,5.78-56.38.69-4.44,1.38-9,2-13.5a53.12,53.12,0,0,0-2,103.76A101.22,101.22,0,0,1,104,275.34Z" class="cls-2"/><path d="M182.1,125.43c-3.12,0-5.65,4-5.65,8.92s2.53,8.91,5.65,8.91,5.64-4,5.64-8.91S185.22,125.43,182.1,125.43Z" class="cls-3"/><path d="M250.82,125.43c-3.12,0-5.65,4-5.65,8.92s2.53,8.91,5.65,8.91,5.65-4,5.65-8.91S253.94,125.43,250.82,125.43Z" class="cls-4"/><path d="M317.05,261.39c-1.19-18.66-5.72-37.25-7.55-55.81-1.85-18.86-4.22-37.65-6.57-56.46-.12-1-.25-1.91-.4-2.86a7.76,7.76,0,0,1,2.5-7.16,22.11,22.11,0,0,0-19.29-38.35,7.93,7.93,0,0,1-7.37-2.14c-15.88-15.76-37.87-23.55-61.94-23.55s-46.05,7.79-61.93,23.55a7.93,7.93,0,0,1-7.37,2.14,22.11,22.11,0,0,0-19.29,38.35,7.76,7.76,0,0,1,2.5,7.16c-.15,1-.28,1.9-.4,2.86q-3.6,28.89-7.21,57.8C118,245,103.05,299.86,137.05,329.86c21.43,18.91,60.16,10.63,63.84-19.92a32.53,32.53,0,0,0-11-28.19,40,40,0,1,1,53.19-.06A32.74,32.74,0,0,0,232,310l.17,1.44c2.78,23.05,26.77,32.23,47.21,26.37C310.77,328.81,318.86,289.59,317.05,261.39ZM227,186.33a4.56,4.56,0,0,1-4.47,3.66H210.37a4.56,4.56,0,0,1-4.48-3.66l-1.16-5.79a20.36,20.36,0,0,0,11.71-9.39,20.27,20.27,0,0,0,11.7,9.39Zm32.44-28.06a3.83,3.83,0,0,0-3.12,2.82c-1.92,9-10.81,15.81-21.49,15.81h-.19c-8.73-.06-15.72-6.47-15.72-14.23V151.51a4.93,4.93,0,0,1,2.47-4.3c5.44-3.08,11.39-9.84,10.13-14.38-2.21-8-26.92-7.63-30,0-1.76,4.35,4.42,11.27,10,14.4a4.92,4.92,0,0,1,2.48,4.3v11.13c0,7.76-7,14.17-15.72,14.23h-.19c-10.68,0-19.57-6.81-21.49-15.81a3.83,3.83,0,0,0-3.12-2.82c-12.86-2.56-20.94-8.13-20.94-20.23,0-22.78,28.62-41.24,63.92-41.24s63.93,18.46,63.93,41.24C280.36,150.14,272.28,155.71,259.42,158.27Z" class="cls-5"/></svg>
