<?xml version="1.0" encoding="UTF-8"?>
<svg version="1.1" xmlns="http://www.w3.org/2000/svg" viewBox="0 0 490 292">
<title>Paddle icon</title>
<path d="M0 0 C11.88 0 23.76 0 36 0 C35.27000318 3.64998411 34.70428422 5.99468458 33.21484375 9.23046875 C32.85293945 10.02469238 32.49103516 10.81891602 32.11816406 11.63720703 C31.53373535 12.89960205 31.53373535 12.89960205 30.9375 14.1875 C30.11798199 15.9802368 29.2989825 17.77321071 28.48046875 19.56640625 C28.06587402 20.47148926 27.6512793 21.37657227 27.22412109 22.30908203 C25.04596121 27.09721092 22.93426077 31.91502758 20.82788086 36.73510742 C19.21033477 40.40215545 17.50994289 44.00421082 15.6953125 47.578125 C12.28995723 54.32802563 9.22183318 61.23012095 6.125 68.125 C5.49748056 69.51810458 4.86987589 70.91117076 4.2421875 72.30419922 C0.64924126 80.28621996 -2.91495522 88.27964026 -6.375 96.3203125 C-8.81839423 101.92413905 -11.42871097 107.45412965 -14 113 C-21.28233457 128.72765719 -28.5101696 144.47827348 -35.65991211 160.26660156 C-38.57906351 166.707749 -41.52107783 173.13622867 -44.5234375 179.5390625 C-48.04316733 187.04870569 -51.43724244 194.61205271 -54.8125 202.1875 C-55.67155954 204.11439642 -56.5310064 206.04111626 -57.39152527 207.96736145 C-58.15884503 209.68509815 -58.92480508 211.40344204 -59.69067383 213.12182617 C-60.74422081 215.43774364 -61.86215687 217.72431373 -63 220 C-74.55 220 -86.1 220 -98 220 C-97.19861794 214.39032559 -96.16832534 210.50903746 -93.83203125 205.5546875 C-93.35608772 204.51708786 -93.35608772 204.51708786 -92.87052917 203.45852661 C-91.8596761 201.25998186 -90.8363917 199.06749794 -89.8125 196.875 C-89.14434636 195.42746889 -88.47702194 193.97955473 -87.81054688 192.53125 C-86.18274474 188.99891911 -84.54553062 185.47105708 -82.90463257 181.9447937 C-78.22654638 171.88776848 -73.62649815 161.7966352 -69.0625 151.6875 C-68.75662964 151.01078247 -68.45075928 150.33406494 -68.13562012 149.63684082 C-64.09286935 140.69119079 -60.09190417 131.73053864 -56.234375 122.703125 C-55 120 -55 120 -53 117 C-78.08 117 -103.16 117 -129 117 C-130.41742912 112.74771264 -128.62707375 109.98410778 -126.9375 106.0625 C-126.64939453 105.36576172 -126.36128906 104.66902344 -126.06445312 103.95117188 C-123.32939509 97.45614112 -120.16859583 91.33719165 -117 85 C-90.93 85 -64.86 85 -38 85 C-37.01 82.03 -36.02 79.06 -35 76 C-34.04344177 73.79315778 -33.04319334 71.60473416 -32 69.4375 C-31.38565932 68.14763948 -30.77246361 66.85723325 -30.16015625 65.56640625 C-29.82129395 64.85371582 -29.48243164 64.14102539 -29.13330078 63.40673828 C-26.86113481 58.58144483 -24.6547152 53.72571929 -22.4375 48.875 C-21.47800054 46.7785836 -20.5183689 44.68222769 -19.55859375 42.5859375 C-18.88739502 41.11979004 -18.88739502 41.11979004 -18.20263672 39.62402344 C-16.8075114 36.58001067 -15.40553675 33.5392186 -14 30.5 C-9.30514288 20.34632971 -4.65895809 10.17016461 0 0 Z " fill="#000000" transform="translate(139,64)"/>
<path d="M0 0 C11.55 0 23.1 0 35 0 C33.87539337 6.74763977 33.87539337 6.74763977 32.29296875 9.98828125 C31.95571777 10.68977295 31.6184668 11.39126465 31.27099609 12.11401367 C30.91344238 12.83951416 30.55588867 13.56501465 30.1875 14.3125 C29.45383633 15.83565309 28.72075635 17.35908748 27.98828125 18.8828125 C27.63975098 19.60243164 27.2912207 20.32205078 26.93212891 21.06347656 C23.62908381 27.9256436 20.72214954 34.97160051 17.7578125 41.984375 C15.28752453 47.70806361 12.62501403 53.34618538 10 59 C1.52356863 77.21562836 1.52356863 77.21562836 -6.62866211 95.57739258 C-8.7812196 100.54772364 -11.06030161 105.44966171 -13.37182617 110.34716797 C-15.54255113 114.96627584 -17.59973479 119.62800704 -19.625 124.3125 C-21.89331223 129.55511392 -24.28379716 134.69410683 -26.88671875 139.78125 C-28.35305192 142.70362628 -29.66883167 145.68148625 -30.98046875 148.67578125 C-33.91956109 155.37601092 -37.00300224 162.00845104 -40.125 168.625 C-43.36097884 175.51365036 -46.43854088 182.46980827 -49.5 189.4375 C-49.97252197 190.51281982 -50.44504395 191.58813965 -50.93188477 192.69604492 C-53.03389252 197.48871009 -55.12697461 202.28477065 -57.19140625 207.09375 C-57.51238281 207.83826416 -57.83335937 208.58277832 -58.1640625 209.34985352 C-58.74514438 210.70007937 -59.3222439 212.05202906 -59.89453125 213.40600586 C-61.03773657 216.0602399 -61.93426142 217.93426142 -64 220 C-66.65291757 220.17510386 -69.19986174 220.23155483 -71.8515625 220.1953125 C-73.01261002 220.19106766 -73.01261002 220.19106766 -74.19711304 220.18673706 C-76.67323157 220.17552754 -79.1489905 220.15042203 -81.625 220.125 C-83.30207812 220.11497118 -84.97916189 220.10584516 -86.65625 220.09765625 C-90.77097223 220.07558574 -94.88542511 220.04105102 -99 220 C-98.4820968 216.43822984 -97.89042588 213.2831636 -96.3984375 210.00390625 C-96.07673584 209.28831543 -95.75503418 208.57272461 -95.42358398 207.83544922 C-95.07755127 207.08537598 -94.73151855 206.33530273 -94.375 205.5625 C-94.01672119 204.77117676 -93.65844238 203.97985352 -93.28930664 203.16455078 C-90.76328299 197.60384073 -88.17801594 192.07051473 -85.57568359 186.54516602 C-83.47209495 182.06295913 -81.46917428 177.54268892 -79.5 173 C-76.14330681 165.26391494 -72.60168805 157.62454886 -69 150 C-67.96820577 147.81263633 -66.93682367 145.62507986 -65.90600586 143.43725586 C-65.2476115 142.04048695 -64.58835589 140.64412347 -63.92797852 139.24829102 C-58.61209866 127.98550461 -53.58676521 116.59211309 -48.54882812 105.203125 C-45.53599215 98.40772205 -42.45888219 91.64632977 -39.33276367 84.90234375 C-37.70341222 81.35412429 -36.15784869 77.77841203 -34.625 74.1875 C-32.24673366 68.66774722 -29.6768427 63.28654707 -26.9375 57.9375 C-24.32786036 52.83698202 -21.9978408 47.72119923 -19.9375 42.375 C-17.54828861 36.20448928 -14.75179633 30.37477233 -11.73046875 24.4921875 C-9.42010024 19.82972825 -7.42901978 15.06737681 -5.45703125 10.25390625 C-3.87468537 6.72014186 -1.92098111 3.36171695 0 0 Z " fill="#000000" transform="translate(336,64)"/>
<path d="M0 0 C4.33750635 -0.10022677 8.67436737 -0.1720945 13.01269531 -0.21972656 C14.48286709 -0.23961976 15.95296215 -0.26674472 17.42285156 -0.30175781 C33.32207161 -0.67049825 46.65126577 3.03218991 58.98828125 13.546875 C64.81843995 19.13246683 69.36723099 24.79324465 73 32 C73.38800781 32.73863281 73.77601563 33.47726563 74.17578125 34.23828125 C80.86057999 47.92388739 79.96567138 62.64875905 76 77 C70.43092107 91.5559415 60.3572607 102.68800679 46.875 110.25 C46.30837646 110.5795166 45.74175293 110.9090332 45.15795898 111.24853516 C32.2889145 118.10851661 17.62995 117.40798722 3.5078125 117.29296875 C1.4651623 117.28736107 -0.57749199 117.28309653 -2.62014771 117.28010559 C-7.94988497 117.26874902 -13.27936997 117.23936277 -18.60900879 117.20599365 C-24.06612742 117.17509276 -29.52328752 117.16155781 -34.98046875 117.14648438 C-45.65375558 117.11448276 -56.32685667 117.06339997 -67 117 C-66.41856356 112.628168 -65.7685519 108.87766409 -64.00390625 104.828125 C-63.61009766 103.91675781 -63.21628906 103.00539063 -62.81054688 102.06640625 C-62.39869141 101.13699219 -61.98683594 100.20757812 -61.5625 99.25 C-60.95051758 97.83267578 -60.95051758 97.83267578 -60.32617188 96.38671875 C-58.7255818 92.71554477 -57.22698576 89.34047864 -55 86 C-52.47970905 85.70461401 -50.20210619 85.60390174 -47.6796875 85.63110352 C-46.9249263 85.62733704 -46.1701651 85.62357056 -45.39253235 85.61968994 C-43.74960574 85.61324415 -42.10664187 85.61359996 -40.4637146 85.61987495 C-37.85617197 85.62897194 -35.2493507 85.6187743 -32.6418457 85.60325623 C-25.22690011 85.56313942 -17.81200869 85.56194164 -10.39697266 85.56420898 C-5.86224326 85.56426035 -1.32789787 85.54495148 3.20672607 85.51487541 C5.76258908 85.50411635 8.31769705 85.51614698 10.87353516 85.52870178 C22.3800686 85.50210996 31.64478113 84.12123041 40.30859375 76 C45.54209564 69.81165596 47.51300752 61.9516166 47 54 C45.45192366 46.41808283 43.05259903 40.07316179 36.76953125 35.30859375 C26.57757869 28.75098086 16.25564196 28.64311807 4.4375 28.375 C3.03318119 28.3367343 1.62888369 28.29767788 0.22460938 28.2578125 C-3.18346604 28.16411971 -6.59154423 28.07839926 -10 28 C-11.37724797 23.86825608 -10.06802779 22.24437217 -8.3125 18.3125 C-8.03575439 17.68690186 -7.75900879 17.06130371 -7.47387695 16.41674805 C-5.44741 11.87381502 -3.25734025 7.4310753 -1 3 C-0.67 2.01 -0.34 1.02 0 0 Z " fill="#000000" transform="translate(404,64)"/>
<path d="M0 0 C4.17677912 -0.10044978 8.35287985 -0.17219399 12.53051758 -0.21972656 C13.945356 -0.23958394 15.36011531 -0.26667966 16.7746582 -0.30175781 C34.81439134 -0.73722173 48.51740603 4.33211818 61.7421875 16.70703125 C73.69955214 28.85058323 78.24942992 43.2193673 78.1784668 60.01269531 C78.10358889 65.29919763 77.69474696 69.99603662 76 75 C75.53980469 76.37865234 75.53980469 76.37865234 75.0703125 77.78515625 C68.84699551 94.4164344 57.4915054 104.46561112 42.078125 112.45703125 C29.3879536 117.72916614 16.18834441 117.40386007 2.7265625 117.29296875 C0.70633258 117.28736088 -1.31390147 117.28309643 -3.33413696 117.28010559 C-8.60469182 117.26875047 -13.87499149 117.23936555 -19.14544678 117.20599365 C-24.54224192 117.17508955 -29.93907903 117.16155714 -35.3359375 117.14648438 C-45.89073601 117.11448534 -56.44534663 117.06340441 -67 117 C-68.28665556 112.81614624 -67.38425735 110.92963318 -65.5078125 106.95703125 C-64.96769531 105.80138672 -64.42757812 104.64574219 -63.87109375 103.45507812 C-63.28911962 102.24085804 -62.70708768 101.02666566 -62.125 99.8125 C-61.54975509 98.58706972 -60.97552443 97.36116278 -60.40234375 96.13476562 C-56.18573082 87.18573082 -56.18573082 87.18573082 -55 86 C-52.58874017 85.89626748 -50.20519852 85.85638163 -47.79321289 85.8581543 C-46.66129013 85.85294266 -46.66129013 85.85294266 -45.50650024 85.84762573 C-43.8608226 85.84025331 -42.21513492 85.83491589 -40.56944466 85.83133507 C-37.95795247 85.82417846 -35.34664917 85.80851413 -32.73521423 85.78999329 C-25.30747206 85.73751391 -17.87982749 85.68962813 -10.4519043 85.67407227 C-5.9117898 85.66393988 -1.37214189 85.63447305 3.16778755 85.59275246 C4.89275124 85.58050134 6.61778106 85.57531036 8.34278679 85.57755089 C20.12858363 85.5890819 30.48523407 85.08926252 39.53125 76.640625 C45.31754098 70.17721487 46.33114154 63.24549529 46.20703125 54.83984375 C45.59541572 46.45032501 42.16999028 40.63346938 36 35 C29.2770155 29.88567545 21.43408534 28.78469561 13.21875 28.5859375 C12.51979614 28.56657135 11.82084229 28.5472052 11.10070801 28.5272522 C8.90059036 28.4681785 6.70041828 28.42136527 4.5 28.375 C2.99477071 28.33675343 1.48956175 28.29769799 -0.015625 28.2578125 C-3.6768957 28.16253875 -7.33832122 28.07824644 -11 28 C-11.18215577 23.21738764 -9.84310886 19.91216259 -7.75 15.6875 C-7.44964844 15.06166016 -7.14929688 14.43582031 -6.83984375 13.79101562 C-4.61163361 9.16866481 -2.30087284 4.58647439 0 0 Z " fill="#000000" transform="translate(208,64)"/>
<path d="M0 0 C5.01927615 4.07422415 8.34912066 8.03525014 9.1171875 14.640625 C9.6319714 22.61977544 7.89051051 27.70460026 2.8671875 33.890625 C-2.07316487 39.19046247 -6.64321558 40.78058204 -13.8203125 41.078125 C-20.57678033 40.86751191 -24.97772696 39.39876069 -29.890625 34.734375 C-35.8341828 28.28549447 -36.24790495 23.60312161 -36.16015625 14.90625 C-35.64367175 8.82482693 -33.41215548 4.72766408 -28.8203125 0.765625 C-19.81200761 -5.75102109 -9.40881778 -6.79308835 0 0 Z " fill="#000000" transform="translate(262.8828125,5.359375)"/>
<path d="M0 0 C5.05658087 4.76848491 6.81082053 9.28507226 7.125 16.1875 C6.90392616 22.6516992 5.27074178 27.02114752 0.81640625 31.7265625 C-5.58312055 37.60590092 -10.62844026 39.23304049 -19.3046875 39.0625 C-25.12601004 38.45768727 -29.28998462 36.20347915 -33.125 31.8125 C-33.846875 30.801875 -34.56875 29.79125 -35.3125 28.75 C-35.84488281 28.00492188 -36.37726563 27.25984375 -36.92578125 26.4921875 C-38.65112172 23.08038748 -38.71231838 20.62212208 -38.6875 16.8125 C-38.69523437 15.62785156 -38.70296875 14.44320313 -38.7109375 13.22265625 C-38.0398399 7.37358007 -35.25212955 3.02731208 -31.3125 -1.25 C-21.27981627 -8.93460881 -9.53904896 -7.76028663 0 0 Z " fill="#000000" transform="translate(462.3125,7.25)"/>
</svg>
